<?xml version="1.0" encoding="UTF-8"?>
<svg id="Capa_2" data-name="Capa 2" xmlns="http://www.w3.org/2000/svg" viewBox="0 0 24 24">
  <defs>
    <style>
      .cls-1 {
        fill: #374557;
      }
    </style>
  </defs>
  <g id="Capa_1-2" data-name="Capa 1">
    <path id="Vector-4" class="cls-1" d="M11.25,24c-.83,0-1.5-.67-1.5-1.5l-.18-1.26c-.12-.82-.88-1.39-1.7-1.27-.25.04-.49.13-.69.28l-1.02.76c-.59.59-1.54.59-2.12,0l-1.06-1.06c-.59-.59-.59-1.54,0-2.12l.76-1.02c.5-.66.36-1.6-.3-2.1-.2-.15-.44-.25-.69-.28l-1.26-.18c-.83,0-1.5-.67-1.5-1.5v-1.5c0-.83.67-1.5,1.5-1.5l1.26-.18c.82-.12,1.39-.88,1.27-1.7-.04-.25-.13-.49-.28-.69l-.76-1.02c-.59-.59-.59-1.54,0-2.12l1.06-1.06c.59-.59,1.54-.59,2.12,0l1.02.76c.66.5,1.6.36,2.1-.3.15-.2.25-.44.28-.69l.18-1.26c0-.83.67-1.5,1.5-1.5h1.5c.83,0,1.5.67,1.5,1.5l.18,1.26c.12.82.88,1.39,1.7,1.27.25-.04.49-.13.69-.28l1.02-.76c.59-.59,1.54-.59,2.12,0l1.06,1.06c.59.59.59,1.54,0,2.12l-.76,1.02c-.5.66-.36,1.6.3,2.1.2.15.44.25.69.28l1.26.18c.83,0,1.5.67,1.5,1.5v1.5c0,.83-.67,1.5-1.5,1.5l-1.26.18c-.82.12-1.39.88-1.27,1.7.04.25.13.49.28.69l.76,1.02c.59.59.59,1.54,0,2.12l-1.06,1.06c-.59.59-1.54.59-2.12,0l-1.02-.76c-.66-.5-1.6-.36-2.1.3-.15.2-.25.44-.28.69l-.18,1.26c0,.83-.67,1.5-1.5,1.5h-1.5Z"/>
  </g>
</svg>